HIERARCHY
ROOT Hips
{
	OFFSET 33.849033 36.703693 -19.447113
	CHANNELS 6 Xposition Yposition Zposition Xrotation Yrotation Zrotation
	JOINT Chest
	{
		OFFSET 8.490570 10.656918 0.703236
		CHANNELS 3 Xrotation Yrotation Zrotation
		JOINT Chest2
		{
			OFFSET -5.995453 20.568802 0.214046
			CHANNELS 3 Xrotation Yrotation Zrotation
			JOINT Chest3
			{
				OFFSET 0.023273 14.926086 -0.176907
				CHANNELS 3 Xrotation Yrotation Zrotation
				JOINT Neck
				{
					OFFSET -0.456390 17.245110 1.007006
					CHANNELS 3 Xrotation Yrotation Zrotation
					JOINT Head
					{
						OFFSET -3.405071 9.874908 -0.848198
						CHANNELS 3 Xrotation Yrotation Zrotation
						End Site
						{
							OFFSET -3.337456 9.899109 -0.834694
						}
					}
				}
				JOINT LeftCollar
				{
					OFFSET -3.138771 12.908463 5.032316
					CHANNELS 3 Xrotation Yrotation Zrotation
					JOINT LeftUpArm
					{
						OFFSET 7.961685 -4.269493 15.062620
						CHANNELS 3 Xrotation Yrotation Zrotation
						JOINT LeftLowArm
						{
							OFFSET 8.416924 -30.597321 11.519033
							CHANNELS 3 Xrotation Yrotation Zrotation
							JOINT LeftHand
							{
								OFFSET -8.449394 -28.776489 1.211951
								CHANNELS 3 Xrotation Yrotation Zrotation
								End Site
								{
									OFFSET -1.846661 -6.289270 0.264882
								}
							}
						}
					}
				}
				JOINT RightCollar
				{
					OFFSET -3.325573 13.394203 -3.368176
					CHANNELS 3 Xrotation Yrotation Zrotation
					JOINT RightUpArm
					{
						OFFSET 8.075779 -3.158020 -15.274326
						CHANNELS 3 Xrotation Yrotation Zrotation
						JOINT RightLowArm
						{
							OFFSET 8.163956 -29.771370 -13.665661
							CHANNELS 3 Xrotation Yrotation Zrotation
							JOINT RightHand
							{
								OFFSET -9.569725 -28.039894 -4.810375
								CHANNELS 3 Xrotation Yrotation Zrotation
								End Site
								{
									OFFSET -2.091549 -6.128399 -1.051369
								}
							}
						}
					}
				}
			}
		}
	}
	JOINT LeftUpLeg
	{
		OFFSET -0.466755 -0.288670 10.005898
		CHANNELS 3 Xrotation Yrotation Zrotation
		JOINT LeftLowLeg
		{
			OFFSET -28.428070 36.378662 10.603153
			CHANNELS 3 Xrotation Yrotation Zrotation
			JOINT LeftFoot
			{
				OFFSET -6.044558 -44.062771 -4.743969
				CHANNELS 3 Xrotation Yrotation Zrotation
				JOINT LeftToe
				{
					OFFSET -17.964458 -11.903837 -9.753807
					CHANNELS 3 Xrotation Yrotation Zrotation
					End Site
					{
						OFFSET -23.022125 2.408411 -4.872410
					}
				}
			}
		}
	}
	JOINT RightUpLeg
	{
		OFFSET 0.466633 0.288517 -10.005911
		CHANNELS 3 Xrotation Yrotation Zrotation
		JOINT RightLowLeg
		{
			OFFSET -44.060463 13.284225 -11.234644
			CHANNELS 3 Xrotation Yrotation Zrotation
			JOINT RightFoot
			{
				OFFSET 28.683819 -31.186510 14.325554
				CHANNELS 3 Xrotation Yrotation Zrotation
				JOINT RightToe
				{
					OFFSET -0.924927 4.518787 23.200897
					CHANNELS 3 Xrotation Yrotation Zrotation
					End Site
					{
						OFFSET -15.286121 6.883766 16.688448
					}
				}
			}
		}
	}
}
MOTION
Frames: 13
Frame Time: 0.033333
-0.893719 105.162354 -1.111687 -64.308854 87.434146 109.940576 2.300381 3.383664 -54.580984 2.114288 3.007626 5.956628 -1.051156 -4.254628 6.833333 4.833179 6.484334 -13.794032 0.000001 0.000001 -0.000002 10.940579 1.102999 1.658954 4.713390 -17.217870 -13.847417 -16.762493 -2.159469 9.628355 0.000001 0.000002 0.000001 -10.317715 1.002518 2.318356 -2.005633 19.377882 -10.734425 6.761847 1.351862 9.091731 0.000001 -0.000002 -0.000003 18.838591 4.894134 99.017853 24.091665 4.956358 -124.292381 -15.651715 -10.268836 -26.912351 -0.000001 -0.000003 -0.000001 -15.155934 -4.133935 63.836259 -66.743482 -21.167916 -147.738289 36.465704 -1.826141 -20.392201 -0.000000 0.000000 0.000001 
-0.890110 105.165558 -1.115835 -56.239368 87.147306 101.863426 2.399020 3.295378 -54.452365 2.236046 3.109120 5.811679 -1.230400 -3.986950 6.920419 4.822894 6.496782 -13.739427 0.000001 0.000001 -0.000000 10.897090 1.353230 1.664083 4.868359 -17.366253 -13.867644 -16.977823 -2.249595 9.577025 -0.000000 -0.000005 0.000001 -10.350855 0.503747 2.198822 -1.959408 19.522199 -10.720589 6.602706 1.398181 9.179232 0.000000 -0.000001 -0.000004 18.885572 4.867797 99.161649 23.881760 4.898370 -124.317639 -15.397504 -9.643261 -26.658655 0.000000 -0.000002 -0.000000 -15.039069 -4.170832 63.772431 -66.658111 -21.420262 -147.772509 36.779435 -2.020942 -21.043644 0.000000 -0.000000 -0.000003 
-0.884811 105.167572 -1.115372 -56.317020 87.162469 101.935861 2.422329 3.303106 -54.738574 2.286999 3.129402 5.628035 -1.268441 -4.163547 7.591202 4.963185 6.452394 -14.870170 0.000001 0.000000 -0.000000 10.928473 1.520381 1.615753 4.829187 -17.515773 -14.070714 -17.010130 -2.253905 9.538342 -0.000000 -0.000002 -0.000001 -10.350978 0.843644 2.327304 -1.938359 19.584258 -10.831999 6.936002 1.516563 8.940464 0.000002 0.000001 -0.000004 18.939548 4.895559 99.125470 23.907083 4.902530 -124.332747 -15.387967 -9.569316 -26.686555 -0.000001 -0.000002 -0.000000 -15.083288 -4.139970 63.653258 -66.694448 -21.820540 -147.714944 36.775938 -2.272194 -21.591369 0.000000 0.000005 -0.000001 
-0.885155 105.170990 -1.115339 -59.411301 87.370127 104.886892 2.240883 3.384875 -54.142834 2.309594 3.111571 4.800916 -1.132761 -4.378910 7.929042 4.891907 6.502839 -14.342079 0.000000 -0.000001 -0.000003 10.923855 1.597905 1.599071 4.883918 -17.527544 -13.890470 -17.108941 -2.400138 9.154024 -0.000001 -0.000002 0.000001 -10.430600 0.676200 2.296669 -1.919534 19.718801 -10.773537 7.001006 1.594783 9.112171 0.000001 -0.000000 -0.000003 18.809422 4.909440 99.049539 23.930022 4.997817 -124.292449 -15.540900 -9.501493 -26.967603 -0.000001 -0.000000 0.000000 -15.139961 -4.155384 64.035974 -66.572385 -21.728510 -147.687213 36.342917 -2.220794 -21.762239 0.000001 -0.000002 -0.000001 
-0.878963 105.171249 -1.119040 -57.563912 87.388261 103.138049 2.246830 3.401297 -54.414737 2.168621 3.037835 5.735737 -1.067995 -4.276263 7.257175 4.874403 6.477640 -14.813104 0.000000 0.000002 -0.000002 10.860760 1.315456 1.700820 4.918722 -17.659046 -14.059253 -17.245212 -2.342726 9.320665 -0.000000 -0.000007 0.000004 -10.294772 0.903047 2.387578 -2.008996 19.710123 -10.769089 7.188211 1.603207 8.870755 -0.000001 -0.000000 -0.000003 18.800161 4.901412 98.945488 23.914504 4.939167 -124.285319 -15.605589 -9.365993 -26.987773 -0.000001 -0.000002 -0.000000 -15.180113 -4.136095 63.979352 -66.619862 -21.679772 -147.657147 36.648538 -2.185275 -21.627225 -0.000000 0.000001 0.000001 
-0.870693 105.178802 -1.128521 -51.476148 87.239841 96.932563 2.303380 3.355024 -54.246182 2.170652 3.026374 5.680423 -1.163317 -4.164343 7.229721 4.921296 6.509276 -14.619315 0.000001 0.000000 -0.000000 10.903759 1.413354 1.588932 4.893803 -17.422655 -13.925464 -17.089480 -2.255187 9.144809 -0.000001 -0.000004 0.000003 -10.348968 1.041675 2.385573 -1.999684 19.439152 -10.668041 7.125340 1.566519 9.033518 -0.000000 -0.000002 -0.000005 18.806031 4.985591 99.089591 23.903731 4.870145 -124.315904 -15.444635 -9.287351 -26.769583 -0.000001 -0.000001 0.000000 -15.215363 -4.220279 64.159621 -66.692146 -21.538078 -147.808272 37.073266 -2.222634 -21.655106 -0.000001 0.000004 -0.000004 
-0.859356 105.183594 -1.138756 -49.331171 87.186149 94.745693 2.392617 3.292374 -54.306899 2.152031 3.019187 5.818958 -1.276345 -4.051152 7.226346 4.906283 6.462319 -14.963367 0.000000 0.000000 -0.000002 10.908835 1.645059 1.554544 4.742476 -17.665441 -14.087481 -16.798167 -2.327658 9.164972 -0.000000 -0.000004 0.000001 -10.377839 0.711725 2.287375 -1.734456 19.833035 -10.955626 6.925944 1.598605 9.218116 0.000001 0.000001 -0.000005 18.807351 4.968049 99.032436 23.849964 4.909715 -124.223628 -15.476369 -8.977777 -26.825633 0.000000 -0.000002 -0.000000 -15.218421 -4.180286 64.042893 -66.675029 -21.711366 -147.725968 36.900882 -2.209322 -21.575546 -0.000001 0.000003 -0.000001 
-0.843029 105.188446 -1.150562 -53.318666 87.447855 99.145776 2.370209 3.340165 -54.734558 2.142614 3.005844 5.575629 -1.169118 -4.444994 7.262999 4.815481 6.397146 -14.501190 0.000000 0.000000 -0.000002 10.835001 1.693959 1.460711 4.928804 -17.115640 -13.739257 -16.625763 -2.125843 9.044825 -0.000001 -0.000005 0.000001 -10.349292 0.962756 2.316115 -1.988140 19.490937 -10.829991 7.024151 1.270060 9.576036 0.000000 0.000001 -0.000004 18.711751 4.861584 98.740261 23.879692 4.796265 -124.324510 -15.458972 -9.306449 -26.727155 -0.000001 -0.000002 -0.000000 -15.248507 -3.944425 63.716444 -66.630135 -21.566174 -147.676408 36.584590 -2.151769 -21.587704 -0.000002 0.000001 -0.000000 
-0.818462 105.196701 -1.159754 -47.967363 87.279729 93.550567 2.364248 3.312047 -54.297470 2.214943 3.053858 5.115749 -1.281030 -4.127705 7.696337 4.717776 6.163436 -15.253814 -0.000000 -0.000001 -0.000002 10.796696 1.440326 1.527282 5.079551 -17.219194 -14.007465 -16.822443 -1.942815 9.381154 0.000000 -0.000002 -0.000001 -10.414864 0.534567 2.128419 -1.961047 19.500062 -10.938755 7.156651 1.246707 9.398250 -0.000001 -0.000000 -0.000004 18.775241 4.866944 98.970363 23.941766 4.909773 -124.257001 -15.503852 -9.099729 -26.798121 0.000000 -0.000001 0.000000 -15.196215 -3.960505 63.680114 -66.662018 -21.898314 -147.609540 36.630045 -2.269007 -21.836516 0.000000 -0.000004 0.000001 
-0.793938 105.210876 -1.170113 -53.038335 87.521935 98.661823 2.368970 3.331676 -54.484822 2.188407 3.013415 4.882971 -1.245786 -4.127169 7.820667 4.402424 5.954988 -14.123061 0.000000 0.000001 -0.000002 10.643589 0.655836 1.611193 5.362807 -16.457675 -13.635458 -16.761803 -1.584900 9.445829 0.000001 -0.000000 0.000000 -10.384101 0.387507 1.918450 -2.124962 18.680595 -10.573638 6.891382 0.857973 9.326969 0.000001 0.000002 -0.000002 18.775087 4.827587 98.802081 24.065179 5.014705 -124.224885 -15.707885 -9.311435 -27.082433 -0.000002 -0.000001 0.000000 -15.254942 -4.050554 63.914274 -66.683116 -21.443123 -147.692432 36.524327 -2.233663 -21.736770 -0.000002 0.000002 -0.000000 
-0.756870 105.216782 -1.175770 -49.432948 87.444357 95.210242 2.384439 3.338397 -54.590287 2.254920 3.051685 4.691686 -1.316330 -4.166429 7.802781 4.281867 5.864636 -13.525369 0.000001 -0.000001 -0.000002 10.636167 0.916849 1.575789 5.300109 -16.505512 -13.719217 -16.424582 -1.407500 9.910971 0.000001 -0.000000 0.000002 -10.437148 0.445931 1.981952 -2.315908 18.508008 -10.394211 7.217806 0.821263 9.210082 -0.000001 -0.000001 -0.000001 18.848371 4.820945 98.880095 23.979457 4.813870 -124.576216 -15.423809 -9.208045 -26.656760 0.000000 0.000000 0.000000 -15.217453 -4.084909 63.894890 -66.637928 -20.998534 -147.876997 36.688365 -2.084080 -21.312109 -0.000001 0.000002 -0.000001 
-0.714046 105.220474 -1.178438 -50.478172 87.469677 95.895999 2.439684 3.264413 -54.214230 2.084960 2.919455 4.573023 -1.168038 -4.153302 7.865586 4.088558 5.678133 -13.384403 0.000000 -0.000001 -0.000003 10.465414 1.029920 1.548953 5.382511 -16.486982 -13.704402 -16.289544 -1.432262 9.740128 -0.000000 -0.000002 -0.000000 -10.482497 0.033456 1.817597 -2.357862 18.594720 -10.517287 7.238501 0.703472 9.126588 -0.000000 0.000001 -0.000002 18.817871 4.864560 99.290105 23.860310 4.618889 -124.806257 -14.979797 -9.735103 -25.881976 -0.000003 -0.000001 -0.000000 -15.163293 -4.091159 64.017867 -66.673056 -21.140936 -147.999517 36.600344 -1.678579 -20.418704 -0.000002 0.000002 0.000001 
-0.666782 105.231888 -1.187346 -51.416756 87.539727 97.123405 2.479014 3.278512 -54.717380 1.945732 2.855586 5.514348 -1.046158 -4.408584 7.230875 4.017653 5.719170 -13.350985 0.000000 0.000001 -0.000002 10.538280 1.087877 1.503927 5.113290 -16.764530 -14.065335 -16.109852 -1.225435 9.632413 0.000001 -0.000000 0.000001 -10.588041 0.367334 1.914278 -2.128449 18.665713 -10.672656 7.131894 0.365441 9.335173 -0.000001 0.000002 -0.000002 18.861489 4.650026 98.868423 23.941574 4.752219 -124.626692 -15.007502 -9.751640 -25.876044 0.000002 0.000001 0.000001 -15.122090 -3.913023 63.475987 -66.619609 -21.181614 -147.893048 36.199709 -1.556242 -20.169707 -0.000001 0.000005 -0.000003 
